<?xml version="1.0" standalone="no"?>
<!DOCTYPE svg PUBLIC "-//W3C//DTD SVG 20010904//EN"
 "http://www.w3.org/TR/2001/REC-SVG-20010904/DTD/svg10.dtd">
<svg version="1.0" xmlns="http://www.w3.org/2000/svg"
 width="512.000000pt" height="512.000000pt" viewBox="0 0 512.000000 512.000000"
 preserveAspectRatio="xMidYMid meet">

<g transform="translate(0.000000,512.000000) scale(0.100000,-0.100000)"
fill="#000000" stroke="none">
<path d="M2638 3048 l-3 -1233 -23 -65 c-33 -91 -68 -146 -134 -212 -63 -63
-167 -119 -256 -137 -287 -59 -572 143 -614 436 -35 244 122 490 360 563 50
16 93 20 193 20 l129 0 0 275 0 275 -144 0 c-163 0 -268 -16 -389 -60 -498
-182 -791 -707 -682 -1220 85 -398 385 -711 783 -817 86 -23 116 -26 262 -26
148 0 175 2 265 27 186 51 332 133 468 265 166 160 264 336 314 566 13 58 17
190 22 758 l6 687 54 -36 c190 -128 497 -232 742 -251 l79 -6 0 275 0 274 -92
13 c-235 33 -464 146 -576 283 -58 71 -107 159 -143 260 -34 92 -68 235 -69
286 l0 32 -275 0 -274 0 -3 -1232z"/>
</g>
</svg>
